# xmcd CD database file generated by LOLA_Freedb v0.9beta0
#
# Track frame offsets:
#      150
#      12789
#      27087
#      39638
#      51899
#      55213
#      65166
#      81504
#      95264
#      109850
#
# Disc length: 1701 seconds
#
# Revision: 0
# Processed by: cddbd v1.5.2PL0 Copyright (c) Steve Scherf et al.
# Submitted via: LOLA_Freedb v0.9beta0
#
DISCID=8106a30a
DTITLE=The Yesteryears - A Family Remembers
DYEAR=2010
DGENRE=
TTITLE0=The Yesteryears - Little Darlin'
TTITLE1=The Yesteryears - Tequilla Sunrise
TTITLE2=The Yesteryears - Folsom Prison
TTITLE3=The Yesteryears - Cryin in the Rain
TTITLE4=Maverick Baker - Remember
TTITLE5=Lou Brunet - Down The Way
TTITLE6=The Yesteryears - Ghost Riders
TTITLE7=The Yesteryears - Sweet Sixteen
TTITLE8=The Yesteryears - Devil Woman
TTITLE9=The Yesteryears - Woman Woman My Wife
EXTD=
EXTT0=
EXTT1=
EXTT2=
EXTT3=
EXTT4=
EXTT5=
EXTT6=
EXTT7=
EXTT8=
EXTT9=
PLAYORDER=
